<?xml version="1.0" encoding="UTF-8" standalone="no"?>
<!-- Created with Inkscape (http://www.inkscape.org/) -->
<svg
   xmlns:dc="http://purl.org/dc/elements/1.1/"
   xmlns:cc="http://creativecommons.org/ns#"
   xmlns:rdf="http://www.w3.org/1999/02/22-rdf-syntax-ns#"
   xmlns:svg="http://www.w3.org/2000/svg"
   xmlns="http://www.w3.org/2000/svg"
   xmlns:xlink="http://www.w3.org/1999/xlink"
   xmlns:sodipodi="http://sodipodi.sourceforge.net/DTD/sodipodi-0.dtd"
   xmlns:inkscape="http://www.inkscape.org/namespaces/inkscape"
   width="900"
   height="600"
   id="svg2"
   sodipodi:version="0.32"
   inkscape:version="0.46"
   version="1.0"
   sodipodi:docname="Apple_Tree.svg"
   inkscape:output_extension="org.inkscape.output.svg.inkscape">
<!-- INSTRUCTIONS!
	1. Create a cool SVG with Inkscape (or download from the internet)
	2. Add xmlns:xlink attribute to the SVG file
	3. Add the script stuff on top of the defs element
	4. Maybe a title, too!
	-->  <title
     id="title10430">PottisJS example: Stand-alone SVG apple tree scene</title>
  <script
     type="text/ecmascript"
     xlink:href="http://www.pottisjs.com/pottis.js"
     id="script10432" />
  <script
     type="text/ecmascript"
     id="script10434">
	
		var pottis = null;
		
		window.onload = function() {
			var svg = document.documentElement;
			pottis = new Pottis(svg);
			
			var paths = document.getElementsByTagName(&quot;path&quot;);
			
			// make every path draggable!			
			for (var i = 0; i &lt; paths.length; i++) {
				pottis.addDrag(paths[i]);
			}
		}
		
	</script>
  <defs
     id="defs4">
    <inkscape:perspective
       sodipodi:type="inkscape:persp3d"
       inkscape:vp_x="0 : 526.18109 : 1"
       inkscape:vp_y="0 : 1000 : 0"
       inkscape:vp_z="744.09448 : 526.18109 : 1"
       inkscape:persp3d-origin="372.04724 : 350.78739 : 1"
       id="perspective10" />
    <inkscape:perspective
       id="perspective2390"
       inkscape:persp3d-origin="372.04724 : 350.78739 : 1"
       inkscape:vp_z="744.09448 : 526.18109 : 1"
       inkscape:vp_y="0 : 1000 : 0"
       inkscape:vp_x="0 : 526.18109 : 1"
       sodipodi:type="inkscape:persp3d" />
  </defs>
  <sodipodi:namedview
     id="base"
     pagecolor="#ffffff"
     bordercolor="#666666"
     borderopacity="1.0"
     gridtolerance="10000"
     guidetolerance="10"
     objecttolerance="10"
     inkscape:pageopacity="0.0"
     inkscape:pageshadow="2"
     inkscape:zoom="0.78"
     inkscape:cx="435.99838"
     inkscape:cy="332.30013"
     inkscape:document-units="px"
     inkscape:current-layer="layer2"
     showgrid="false"
     width="1200px"
     inkscape:window-width="1280"
     inkscape:window-height="800"
     inkscape:window-x="230"
     inkscape:window-y="242" />
  <metadata
     id="metadata7">
    <rdf:RDF>
      <cc:Work
         rdf:about="">
        <dc:format>image/svg+xml</dc:format>
        <dc:type
           rdf:resource="http://purl.org/dc/dcmitype/StillImage" />
      </cc:Work>
    </rdf:RDF>
  </metadata>
  <g
     inkscape:groupmode="layer"
     id="layer2"
     inkscape:label="line">
    <rect
       style="opacity:1;fill:#bee8ff;fill-opacity:1;fill-rule:evenodd;stroke:none;stroke-width:1;stroke-linecap:butt;stroke-linejoin:miter;marker:none;marker-start:none;marker-mid:none;marker-end:none;stroke-miterlimit:4;stroke-dasharray:none;stroke-dashoffset:0;stroke-opacity:1;visibility:visible;display:inline;overflow:visible;enable-background:accumulate"
       id="rect3218"
       width="957.69232"
       height="630.76923"
       x="-26.923077"
       y="-16.666666" />
    <path
       style="fill:#7eff5b;fill-opacity:1;fill-rule:evenodd;stroke:none;stroke-width:1px;stroke-linecap:butt;stroke-linejoin:miter;stroke-opacity:1"
       d="M -11.538462,364.10257 L 132.05129,417.94872 L 337.17949,391.02564 L 501.28205,421.79488 L 675.64102,358.97436 L 911.53846,420.51283 L 969.23077,630.76924 L -62.820512,626.92308 L -11.538462,364.10257 z"
       id="path2446"
       sodipodi:nodetypes="ccccccccc" />
    <g
       id="g2752"
       transform="translate(-600,0)">
      <path
         sodipodi:nodetypes="ccccccscccscccccscccc"
         id="path3167"
         d="M 900.98007,480.35461 C 960.35325,449.8216 997.14807,359.94768 997.14807,353.16615 C 988.10603,344.12413 949.67738,332.82158 912.37898,323.77954 C 882.99237,285.35088 847.8073,266.48104 834.39141,237.88018 C 834.89365,227.07964 834.57535,217.56827 837.78217,218.66586 C 854.02989,263.85667 967.70944,324.67117 977.93375,308.56731 C 970.05355,296.18246 956.18321,282.03563 949.67738,262.74579 C 941.56128,238.68144 925.54119,209.66032 914.6395,188.14898 C 918.64578,182.82423 919.99669,183.52755 927.0723,183.62796 C 931.14266,201.21836 988.52701,325.20174 1009.5809,311.34673 C 1007.6587,290.20285 998.92242,191.10936 991.13986,154.38851 C 989.37015,146.03842 1005.5219,152.65067 1009.5809,150.85057 C 1010.209,168.54796 1028.7952,296.65342 1028.7952,296.65342 L 1056.4829,210.47663 L 1087.5685,213.01458 L 1053.6608,283.09037 C 1053.6608,283.09037 1038.9675,338.47285 1046.8793,333.95182 C 1054.7911,329.43081 1069.4844,320.38877 1069.4844,320.38877 L 1074.0054,336.21234 C 1045.2205,341.35495 1004.7536,448.26179 1019.9994,479.75468 C 1013.7202,475.69419 916.26618,474.66644 900.98007,480.35461 z"
         style="fill:#591f0f;fill-opacity:1;fill-rule:evenodd;stroke:#000000;stroke-width:1.19238877px;stroke-linecap:butt;stroke-linejoin:miter;stroke-opacity:1" />
      <path
         sodipodi:nodetypes="csssz"
         id="path3169"
         d="M 797.09302,154.24133 C 844.7581,146.23788 887.45428,82.225749 898.81593,167.8044 C 909.82856,250.75417 858.12676,313.60725 766.57614,316.99801 C 675.02551,320.38877 711.60267,317.86622 711.19367,261.61553 C 710.66006,187.00403 750.61753,162.04504 797.09302,154.24133 z"
         style="fill:#008500;fill-opacity:1;fill-rule:evenodd;stroke:#000000;stroke-width:1.19238877px;stroke-linecap:butt;stroke-linejoin:miter;stroke-opacity:1" />
      <path
         sodipodi:nodetypes="csssz"
         id="path3171"
         d="M 1104.3079,132.68241 C 1130.2801,148.39309 1194.3662,279.82732 1109.1683,265.89385 C 1023.9706,251.96038 1023.7346,296.10739 968.8917,222.72296 C 914.04885,149.33853 921.20027,101.05716 976.18032,89.161758 C 1031.1604,77.266372 1079.0662,117.41361 1104.3079,132.68241 z"
         style="fill:#008500;fill-opacity:1;fill-rule:evenodd;stroke:#000000;stroke-width:1.19238877px;stroke-linecap:butt;stroke-linejoin:miter;stroke-opacity:1" />
      <path
         sodipodi:nodetypes="csssz"
         id="path3173"
         d="M 1051.6108,150.25304 C 1058.4742,173.84866 955.32367,277.79406 884.0809,218.94586 C 812.83827,160.09773 755.38219,181.73628 792.99603,112.07187 C 830.60986,42.407461 900.67175,22.947545 973.71302,50.61776 C 1046.7543,78.287975 1044.9405,127.32104 1051.6108,150.25304 z"
         style="fill:#008500;fill-opacity:1;fill-rule:evenodd;stroke:#000000;stroke-width:1.36354089px;stroke-linecap:butt;stroke-linejoin:miter;stroke-opacity:1" />
      <path
         sodipodi:nodetypes="ccccc"
         id="path3177"
         d="M 774.4686,268.74272 C 774.87597,267.23424 775.46099,265.83007 776.25502,264.54868 L 776.75224,264.73746 C 775.87588,266.12385 775.33037,267.55046 775.11082,269.01667 L 774.4686,268.74272 z"
         style="fill:#000000;fill-opacity:1;fill-rule:evenodd;stroke:#000000;stroke-width:1.19238877;stroke-linecap:butt;stroke-linejoin:miter;stroke-miterlimit:4;stroke-dasharray:none;stroke-opacity:1" />
      <path
         sodipodi:nodetypes="czzzczzzz"
         id="path3175"
         d="M 769.58867,286.39683 C 770.97874,286.68288 771.3556,288.75955 773.61695,289.42473 C 775.87832,290.08992 781.98436,284.45325 783.7714,278.69485 C 785.58261,272.85853 783.32638,269.7358 780.9987,268.36304 C 778.671,266.9903 775.69835,268.87288 774.77179,268.96487 C 774.00134,268.38619 773.67116,266.09888 770.25636,265.09441 C 766.84155,264.08993 763.12088,265.91115 761.49036,270.91228 C 759.84719,275.95218 761.40377,285.82227 764.05032,286.59148 C 766.73602,287.37208 768.19859,286.1108 769.58867,286.39683 z"
         style="fill:#ff0000;fill-opacity:1;fill-rule:evenodd;stroke:#000000;stroke-width:1.19238877;stroke-linecap:butt;stroke-linejoin:miter;stroke-miterlimit:4;stroke-dasharray:none;stroke-opacity:1" />
      <path
         sodipodi:nodetypes="ccccc"
         id="path3215"
         d="M 1070.5705,224.56034 C 1069.9719,223.11705 1069.5776,221.64787 1069.4238,220.14827 L 1069.9329,219.99411 C 1070.0856,221.62714 1070.5248,223.08995 1071.2464,224.38507 L 1070.5705,224.56034 z"
         style="fill:#000000;fill-opacity:1;fill-rule:evenodd;stroke:#000000;stroke-width:1.19238877;stroke-linecap:butt;stroke-linejoin:miter;stroke-miterlimit:4;stroke-dasharray:none;stroke-opacity:1" />
      <path
         sodipodi:nodetypes="czzzczzzz"
         id="path3217"
         d="M 1077.4876,241.52015 C 1078.7631,240.89774 1080.3297,242.31204 1082.5266,241.45777 C 1084.7235,240.60349 1086.1164,232.41107 1084.0148,226.75986 C 1081.8848,221.03219 1078.1911,219.93729 1075.5096,220.27177 C 1072.8281,220.60626 1071.6238,223.9124 1070.9463,224.5511 C 1069.9828,224.56337 1068.3245,222.95378 1065.007,224.24378 C 1061.6895,225.53379 1059.8555,229.24816 1061.6185,234.20412 C 1063.3952,239.19852 1070.6554,246.06368 1073.2209,245.05655 C 1075.8243,244.03452 1076.2122,242.14257 1077.4876,241.52015 z"
         style="fill:#ff0000;fill-opacity:1;fill-rule:evenodd;stroke:#000000;stroke-width:1.19238877;stroke-linecap:butt;stroke-linejoin:miter;stroke-miterlimit:4;stroke-dasharray:none;stroke-opacity:1" />
      <path
         sodipodi:nodetypes="ccccc"
         id="path3221"
         d="M 938.83238,177.55526 C 938.20103,176.12596 937.77342,174.66614 937.58554,173.17043 L 938.09091,173.00472 C 938.28076,174.63385 938.75321,176.08628 939.50407,177.36465 L 938.83238,177.55526 z"
         style="fill:#000000;fill-opacity:1;fill-rule:evenodd;stroke:#000000;stroke-width:1.19238865;stroke-linecap:butt;stroke-linejoin:miter;stroke-miterlimit:4;stroke-dasharray:none;stroke-opacity:1" />
      <path
         sodipodi:nodetypes="czzzczzzz"
         id="path3223"
         d="M 946.1338,194.35319 C 947.39474,193.70191 948.99316,195.08017 951.17006,194.1761 C 953.34697,193.27203 954.55294,185.05002 952.32326,179.44812 C 950.06341,173.77043 946.34578,172.75991 943.67254,173.15535 C 940.9993,173.5508 939.87064,176.8835 939.20783,177.53746 C 938.24487,177.57167 936.55034,176.00024 933.26308,177.36544 C 929.97581,178.73064 928.22681,182.4858 930.10221,187.40034 C 931.99214,192.353 939.4068,199.05108 941.94867,197.98581 C 944.52815,196.90478 944.87287,195.00448 946.1338,194.35319 z"
         style="fill:#ff0000;fill-opacity:1;fill-rule:evenodd;stroke:#000000;stroke-width:1.19238865;stroke-linecap:butt;stroke-linejoin:miter;stroke-miterlimit:4;stroke-dasharray:none;stroke-opacity:1" />
      <path
         sodipodi:nodetypes="ccccc"
         id="path3227"
         d="M 935.34876,87.527463 C 936.06295,86.137711 936.92902,84.887165 937.97375,83.800441 L 938.42042,84.089143 C 937.27319,85.261307 936.44107,86.542065 935.91938,87.92981 L 935.34876,87.527463 z"
         style="fill:#000000;fill-opacity:1;fill-rule:evenodd;stroke:#000000;stroke-width:1.19238877;stroke-linecap:butt;stroke-linejoin:miter;stroke-miterlimit:4;stroke-dasharray:none;stroke-opacity:1" />
      <path
         sodipodi:nodetypes="czzzczzzz"
         id="path3229"
         d="M 926.8805,103.76846 C 928.17987,104.33922 928.11354,106.44876 930.18549,107.5727 C 932.25746,108.69664 939.40838,104.46343 942.36152,99.206844 C 945.35462,93.879134 943.80225,90.353207 941.8136,88.5235 C 939.82494,86.693798 936.524,87.912226 935.59871,87.808172 C 934.96651,87.080997 935.12258,84.775256 931.99379,83.07804 C 928.865,81.380818 924.84547,82.382621 922.20393,86.931483 C 919.5419,91.515612 918.99734,101.49283 921.42416,102.79915 C 923.88688,104.12479 925.58113,103.1977 926.8805,103.76846 z"
         style="fill:#ff0000;fill-opacity:1;fill-rule:evenodd;stroke:#000000;stroke-width:1.19238877;stroke-linecap:butt;stroke-linejoin:miter;stroke-miterlimit:4;stroke-dasharray:none;stroke-opacity:1" />
      <path
         sodipodi:nodetypes="ccccc"
         id="path3233"
         d="M 862.8499,145.73412 C 863.30114,144.23816 863.92691,142.85168 864.75802,141.59402 L 865.24951,141.79724 C 864.33304,143.15745 863.74611,144.56752 863.48384,146.0267 L 862.8499,145.73412 z"
         style="fill:#000000;fill-opacity:1;fill-rule:evenodd;stroke:#000000;stroke-width:1.19238877;stroke-linecap:butt;stroke-linejoin:miter;stroke-miterlimit:4;stroke-dasharray:none;stroke-opacity:1" />
      <path
         sodipodi:nodetypes="czzzczzzz"
         id="path3235"
         d="M 857.4566,163.23822 C 858.83772,163.56473 859.15378,165.65151 861.39475,166.38244 C 863.63574,167.11337 869.90375,161.65738 871.85816,155.95361 C 873.839,150.17266 871.67491,146.98539 869.3883,145.54526 C 867.10167,144.10513 864.07533,145.90012 863.14647,145.96502 C 862.39325,145.36409 862.12999,143.06812 858.74598,141.96437 C 855.36195,140.86061 851.5897,142.57243 849.81385,147.52382 C 848.02422,152.51359 849.29196,162.42492 851.91492,163.27108 C 854.57669,164.12976 856.07546,162.91172 857.4566,163.23822 z"
         style="fill:#ff0000;fill-opacity:1;fill-rule:evenodd;stroke:#000000;stroke-width:1.19238877;stroke-linecap:butt;stroke-linejoin:miter;stroke-miterlimit:4;stroke-dasharray:none;stroke-opacity:1" />
      <path
         sodipodi:nodetypes="ccccc"
         id="path3239"
         d="M 778.85919,214.00173 C 778.10751,212.63189 777.55621,211.21415 777.24067,209.74008 L 777.72995,209.53161 C 778.0589,211.13844 778.65425,212.54497 779.51204,213.75418 L 778.85919,214.00173 z"
         style="fill:#000000;fill-opacity:1;fill-rule:evenodd;stroke:#000000;stroke-width:1.19238865;stroke-linecap:butt;stroke-linejoin:miter;stroke-miterlimit:4;stroke-dasharray:none;stroke-opacity:1" />
      <path
         sodipodi:nodetypes="czzzczzzz"
         id="path3241"
         d="M 787.57519,230.11113 C 788.77558,229.35404 790.48639,230.59005 792.57767,229.50251 C 794.66896,228.41496 795.16492,220.11979 792.46274,214.7299 C 789.724,209.26708 785.93336,208.57931 783.30392,209.2027 C 780.67447,209.8261 779.83597,213.24336 779.23172,213.95178 C 778.27525,214.0685 776.45212,212.64829 773.29414,214.29055 C 770.13616,215.93281 768.71585,219.8242 771.00608,224.55968 C 773.31405,229.33188 781.27616,235.36897 783.71723,234.0895 C 786.19443,232.79109 786.3748,230.86823 787.57519,230.11113 z"
         style="fill:#ff0000;fill-opacity:1;fill-rule:evenodd;stroke:#000000;stroke-width:1.19238865;stroke-linecap:butt;stroke-linejoin:miter;stroke-miterlimit:4;stroke-dasharray:none;stroke-opacity:1" />
      <path
         sodipodi:nodetypes="ccccc"
         id="path3245"
         d="M 1089.5393,162.71773 C 1088.984,161.2572 1088.6338,159.77691 1088.5248,158.27339 L 1089.0382,158.13449 C 1089.1421,159.77135 1089.5375,161.24663 1090.22,162.56272 L 1089.5393,162.71773 z"
         style="fill:#000000;fill-opacity:1;fill-rule:evenodd;stroke:#000000;stroke-width:1.19238877;stroke-linecap:butt;stroke-linejoin:miter;stroke-miterlimit:4;stroke-dasharray:none;stroke-opacity:1" />
      <path
         sodipodi:nodetypes="czzzczzzz"
         id="path3247"
         d="M 1095.9469,179.87652 C 1097.2403,179.29248 1098.764,180.75292 1100.9855,179.96464 C 1103.2069,179.17634 1104.8438,171.02916 1102.9119,165.31772 C 1100.9539,159.529 1097.2945,158.3243 1094.6042,158.57855 C 1091.9139,158.83283 1090.6114,162.10153 1089.9151,162.71971 C 1088.9517,162.70321 1087.3422,161.04482 1083.9877,162.23519 C 1080.6331,163.42556 1078.689,167.0835 1080.3032,172.0899 C 1081.93,177.13513 1088.982,184.21401 1091.5764,183.28394 C 1094.2092,182.34011 1094.6534,180.46058 1095.9469,179.87652 z"
         style="fill:#ff0000;fill-opacity:1;fill-rule:evenodd;stroke:#000000;stroke-width:1.19238877;stroke-linecap:butt;stroke-linejoin:miter;stroke-miterlimit:4;stroke-dasharray:none;stroke-opacity:1" />
      <path
         sodipodi:nodetypes="ccccc"
         id="path3191"
         d="M 799.84085,463.90866 C 798.7802,465.05606 797.61057,466.02863 796.31273,466.79547 L 795.95982,466.39759 C 797.3793,465.57591 798.52434,464.56514 799.39899,463.36806 L 799.84085,463.90866 z"
         style="fill:#000000;fill-opacity:1;fill-rule:evenodd;stroke:#000000;stroke-width:1.19238865;stroke-linecap:butt;stroke-linejoin:miter;stroke-miterlimit:4;stroke-dasharray:none;stroke-opacity:1" />
      <path
         sodipodi:nodetypes="czzzczzzz"
         id="path3193"
         d="M 812.35333,450.53261 C 811.25456,449.63438 811.88403,447.61985 810.18926,445.98156 C 808.49449,444.34327 800.47042,446.50433 796.21609,450.77672 C 791.9042,455.10693 792.45442,458.91997 793.87972,461.21585 C 795.30503,463.51173 798.81179,463.2229 799.6753,463.57122 C 800.0894,464.44127 799.32087,466.62075 801.88009,469.09467 C 804.43931,471.5686 808.58027,471.68111 812.34466,468.00699 C 816.13825,464.30438 819.3378,454.83842 817.35005,452.92929 C 815.33289,450.99192 813.45212,451.43084 812.35333,450.53261 z"
         style="fill:#ff0000;fill-opacity:1;fill-rule:evenodd;stroke:#000000;stroke-width:1.19238865;stroke-linecap:butt;stroke-linejoin:miter;stroke-miterlimit:4;stroke-dasharray:none;stroke-opacity:1" />
      <path
         sodipodi:nodetypes="ccccc"
         id="path3197"
         d="M 817.72456,451.59723 C 816.46685,450.67005 815.37084,449.61521 814.46511,448.41018 L 814.8215,448.01541 C 815.79519,449.33527 816.92645,450.36144 818.21295,451.09827 L 817.72456,451.59723 z"
         style="fill:#000000;fill-opacity:1;fill-rule:evenodd;stroke:#000000;stroke-width:1.19238877;stroke-linecap:butt;stroke-linejoin:miter;stroke-miterlimit:4;stroke-dasharray:none;stroke-opacity:1" />
      <path
         sodipodi:nodetypes="czzzczzzz"
         id="path3199"
         d="M 832.40292,462.55291 C 833.17406,461.36151 835.24587,461.76421 836.68658,459.89859 C 838.12729,458.03295 835.09169,450.29725 830.37481,446.54176 C 825.59411,442.73545 821.86536,443.70418 819.74128,445.37476 C 817.61719,447.04535 818.29225,450.49861 818.04161,451.39537 C 817.22273,451.90319 814.97159,451.38053 812.79602,454.19775 C 810.62045,457.01498 810.96679,461.14296 815.03487,464.47773 C 819.13448,467.83835 828.89633,469.9709 830.5738,467.78413 C 832.27609,465.565 831.63178,463.74434 832.40292,462.55291 z"
         style="fill:#ff0000;fill-opacity:1;fill-rule:evenodd;stroke:#000000;stroke-width:1.19238877;stroke-linecap:butt;stroke-linejoin:miter;stroke-miterlimit:4;stroke-dasharray:none;stroke-opacity:1" />
      <path
         sodipodi:nodetypes="ccccc"
         id="path3203"
         d="M 791.18684,450.61396 C 792.28541,449.50283 793.48704,448.57008 794.8099,447.84725 L 795.14925,448.25676 C 793.70298,449.03031 792.52465,450.00206 791.6103,451.16909 L 791.18684,450.61396 z"
         style="fill:#000000;fill-opacity:1;fill-rule:evenodd;stroke:#000000;stroke-width:1.19238865;stroke-linecap:butt;stroke-linejoin:miter;stroke-miterlimit:4;stroke-dasharray:none;stroke-opacity:1" />
      <path
         sodipodi:nodetypes="czzzczzzz"
         id="path3205"
         d="M 778.23227,463.56233 C 779.30026,464.49695 778.6035,466.48921 780.2423,468.18347 C 781.88111,469.87775 789.97322,467.98734 794.36861,463.86021 C 798.82347,459.67723 798.40159,455.84787 797.05419,453.50542 C 795.70677,451.16297 792.19229,451.33389 791.34096,450.95677 C 790.95631,450.07331 791.79758,447.92086 789.32288,445.36241 C 786.84817,442.80394 782.71333,442.55244 778.82769,446.0981 C 774.91191,449.67124 771.39632,459.02442 773.31884,460.99922 C 775.26981,463.00323 777.16426,462.62771 778.23227,463.56233 z"
         style="fill:#ff0000;fill-opacity:1;fill-rule:evenodd;stroke:#000000;stroke-width:1.19238865;stroke-linecap:butt;stroke-linejoin:miter;stroke-miterlimit:4;stroke-dasharray:none;stroke-opacity:1" />
      <path
         sodipodi:nodetypes="ccccc"
         id="path3209"
         d="M 770.53944,449.63467 C 770.50457,448.07253 770.66956,446.56034 771.06971,445.10697 L 771.59999,445.14776 C 771.15048,446.72511 771.02973,448.24767 771.23286,449.71625 L 770.53944,449.63467 z"
         style="fill:#000000;fill-opacity:1;fill-rule:evenodd;stroke:#000000;stroke-width:1.19238865;stroke-linecap:butt;stroke-linejoin:miter;stroke-miterlimit:4;stroke-dasharray:none;stroke-opacity:1" />
      <path
         sodipodi:nodetypes="czzzczzzz"
         id="path3211"
         d="M 770.83981,467.94835 C 772.2541,467.8305 773.20167,469.71641 775.55883,469.71641 C 777.916,469.71641 782.18321,462.58573 782.27261,456.55707 C 782.36321,450.44684 779.31745,448.08773 776.69699,447.42764 C 774.07651,446.76756 771.75594,449.4125 770.893,449.76223 C 769.99056,449.42449 769.02833,447.32332 765.46886,447.32332 C 761.90937,447.32332 758.85388,450.12048 758.70093,455.37848 C 758.54679,460.67724 762.82543,469.7069 765.58148,469.698 C 768.37831,469.68898 769.4255,468.06622 770.83981,467.94835 z"
         style="fill:#ff0000;fill-opacity:1;fill-rule:evenodd;stroke:#000000;stroke-width:1.19238865;stroke-linecap:butt;stroke-linejoin:miter;stroke-miterlimit:4;stroke-dasharray:none;stroke-opacity:1" />
      <path
         sodipodi:nodetypes="ccccc"
         id="path3362"
         d="M 810.65367,432.58645 C 809.39597,431.65927 808.29996,430.60443 807.39422,429.3994 L 807.75062,429.00463 C 808.72431,430.32449 809.85557,431.35066 811.14207,432.08749 L 810.65367,432.58645 z"
         style="fill:#000000;fill-opacity:1;fill-rule:evenodd;stroke:#000000;stroke-width:1.19238877;stroke-linecap:butt;stroke-linejoin:miter;stroke-miterlimit:4;stroke-dasharray:none;stroke-opacity:1" />
      <path
         sodipodi:nodetypes="czzzczzzz"
         id="path3364"
         d="M 825.33203,443.54213 C 826.10317,442.35073 828.17498,442.75343 829.61569,440.88781 C 831.05641,439.02217 828.02081,431.28647 823.30393,427.53098 C 818.52322,423.72467 814.79448,424.6934 812.67039,426.36398 C 810.54631,428.03457 811.22136,431.48783 810.97073,432.38459 C 810.15184,432.89241 807.9007,432.36975 805.72514,435.18697 C 803.54956,438.0042 803.89591,442.13218 807.96398,445.46695 C 812.06359,448.82757 821.82545,450.96012 823.50292,448.77335 C 825.20521,446.55422 824.56089,444.73356 825.33203,443.54213 z"
         style="fill:#ff0000;fill-opacity:1;fill-rule:evenodd;stroke:#000000;stroke-width:1.19238877;stroke-linecap:butt;stroke-linejoin:miter;stroke-miterlimit:4;stroke-dasharray:none;stroke-opacity:1" />
      <path
         sodipodi:nodetypes="ccccc"
         id="path3368"
         d="M 760.52329,416.69144 C 759.26559,415.76426 758.16958,414.70942 757.26384,413.50439 L 757.62024,413.10962 C 758.59393,414.42948 759.72519,415.45565 761.01169,416.19248 L 760.52329,416.69144 z"
         style="fill:#000000;fill-opacity:1;fill-rule:evenodd;stroke:#000000;stroke-width:1.19238877;stroke-linecap:butt;stroke-linejoin:miter;stroke-miterlimit:4;stroke-dasharray:none;stroke-opacity:1" />
      <path
         sodipodi:nodetypes="czzzczzzz"
         id="path3370"
         d="M 775.20165,427.64712 C 775.97279,426.45572 778.0446,426.85842 779.48531,424.9928 C 780.92603,423.12716 777.89043,415.39146 773.17355,411.63597 C 768.39285,407.82966 764.6641,408.79839 762.54001,410.46897 C 760.41593,412.13956 761.09099,415.59282 760.84035,416.48958 C 760.02146,416.9974 757.77032,416.47474 755.59476,419.29196 C 753.41918,422.10919 753.76553,426.23717 757.8336,429.57194 C 761.93321,432.93256 771.69507,435.06511 773.37254,432.87834 C 775.07483,430.65921 774.43051,428.83855 775.20165,427.64712 z"
         style="fill:#ff0000;fill-opacity:1;fill-rule:evenodd;stroke:#000000;stroke-width:1.19238877;stroke-linecap:butt;stroke-linejoin:miter;stroke-miterlimit:4;stroke-dasharray:none;stroke-opacity:1" />
      <path
         sodipodi:nodetypes="ccccc"
         id="path3374"
         d="M 789.86791,414.85738 C 788.61021,413.9302 787.5142,412.87536 786.60846,411.67033 L 786.96486,411.27556 C 787.93855,412.59542 789.06981,413.62159 790.35631,414.35842 L 789.86791,414.85738 z"
         style="fill:#000000;fill-opacity:1;fill-rule:evenodd;stroke:#000000;stroke-width:1.19238877;stroke-linecap:butt;stroke-linejoin:miter;stroke-miterlimit:4;stroke-dasharray:none;stroke-opacity:1" />
      <path
         sodipodi:nodetypes="czzzczzzz"
         id="path3376"
         d="M 804.54627,425.81306 C 805.31741,424.62166 807.38922,425.02436 808.82993,423.15874 C 810.27065,421.2931 807.23505,413.5574 802.51817,409.80191 C 797.73747,405.9956 794.00872,406.96433 791.88463,408.63491 C 789.76055,410.3055 790.43561,413.75876 790.18497,414.65552 C 789.36608,415.16334 787.11494,414.64068 784.93938,417.4579 C 782.7638,420.27513 783.11015,424.40311 787.17822,427.73788 C 791.27783,431.0985 801.03969,433.23105 802.71716,431.04428 C 804.41945,428.82515 803.77513,427.00449 804.54627,425.81306 z"
         style="fill:#ff0000;fill-opacity:1;fill-rule:evenodd;stroke:#000000;stroke-width:1.19238877;stroke-linecap:butt;stroke-linejoin:miter;stroke-miterlimit:4;stroke-dasharray:none;stroke-opacity:1" />
      <path
         sodipodi:nodetypes="ccccc"
         id="path3380"
         d="M 790.23205,449.75896 C 789.1714,450.90636 788.00177,451.87893 786.70393,452.64577 L 786.35102,452.24789 C 787.7705,451.42621 788.91554,450.41544 789.79019,449.21836 L 790.23205,449.75896 z"
         style="fill:#000000;fill-opacity:1;fill-rule:evenodd;stroke:#000000;stroke-width:1.19238865;stroke-linecap:butt;stroke-linejoin:miter;stroke-miterlimit:4;stroke-dasharray:none;stroke-opacity:1" />
      <path
         sodipodi:nodetypes="czzzczzzz"
         id="path3382"
         d="M 802.74453,436.38291 C 801.64576,435.48468 802.27523,433.47015 800.58046,431.83186 C 798.88569,430.19357 790.86162,432.35463 786.60729,436.62702 C 782.2954,440.95723 782.84562,444.77027 784.27092,447.06615 C 785.69623,449.36203 789.20299,449.0732 790.0665,449.42152 C 790.4806,450.29157 789.71207,452.47105 792.27129,454.94497 C 794.83051,457.4189 798.97147,457.53141 802.73586,453.85729 C 806.52945,450.15468 809.729,440.68872 807.74125,438.77959 C 805.72409,436.84222 803.84332,437.28114 802.74453,436.38291 z"
         style="fill:#ff0000;fill-opacity:1;fill-rule:evenodd;stroke:#000000;stroke-width:1.19238865;stroke-linecap:butt;stroke-linejoin:miter;stroke-miterlimit:4;stroke-dasharray:none;stroke-opacity:1" />
      <path
         sodipodi:nodetypes="ccccc"
         id="path3386"
         d="M 765.77822,444.25676 C 764.71757,445.40416 763.54794,446.37673 762.2501,447.14357 L 761.89719,446.74569 C 763.31667,445.92401 764.46171,444.91324 765.33636,443.71616 L 765.77822,444.25676 z"
         style="fill:#000000;fill-opacity:1;fill-rule:evenodd;stroke:#000000;stroke-width:1.19238865;stroke-linecap:butt;stroke-linejoin:miter;stroke-miterlimit:4;stroke-dasharray:none;stroke-opacity:1" />
      <path
         sodipodi:nodetypes="czzzczzzz"
         id="path3388"
         d="M 778.2907,430.88071 C 777.19193,429.98248 777.8214,427.96795 776.12663,426.32966 C 774.43186,424.69137 766.40779,426.85243 762.15346,431.12482 C 757.84157,435.45503 758.39179,439.26807 759.81709,441.56395 C 761.2424,443.85983 764.74916,443.571 765.61267,443.91932 C 766.02677,444.78937 765.25824,446.96885 767.81746,449.44277 C 770.37668,451.9167 774.51764,452.02921 778.28203,448.35509 C 782.07562,444.65248 785.27517,435.18652 783.28742,433.27739 C 781.27026,431.34002 779.38949,431.77894 778.2907,430.88071 z"
         style="fill:#ff0000;fill-opacity:1;fill-rule:evenodd;stroke:#000000;stroke-width:1.19238865;stroke-linecap:butt;stroke-linejoin:miter;stroke-miterlimit:4;stroke-dasharray:none;stroke-opacity:1" />
      <path
         sodipodi:nodetypes="ccccc"
         id="path3392"
         d="M 811.62915,424.69366 C 810.5685,425.84106 809.39887,426.81363 808.10103,427.58047 L 807.74812,427.18259 C 809.1676,426.36091 810.31264,425.35014 811.18729,424.15306 L 811.62915,424.69366 z"
         style="fill:#000000;fill-opacity:1;fill-rule:evenodd;stroke:#000000;stroke-width:1.19238865;stroke-linecap:butt;stroke-linejoin:miter;stroke-miterlimit:4;stroke-dasharray:none;stroke-opacity:1" />
      <path
         sodipodi:nodetypes="czzzczzzz"
         id="path3394"
         d="M 824.14163,411.31761 C 823.04286,410.41938 823.67233,408.40485 821.97756,406.76656 C 820.28279,405.12827 812.25872,407.28933 808.00439,411.56172 C 803.6925,415.89193 804.24272,419.70497 805.66802,422.00085 C 807.09333,424.29673 810.60009,424.0079 811.4636,424.35622 C 811.8777,425.22627 811.10917,427.40575 813.66839,429.87967 C 816.22761,432.3536 820.36857,432.46611 824.13296,428.79199 C 827.92655,425.08938 831.1261,415.62342 829.13835,413.71429 C 827.12119,411.77692 825.24042,412.21584 824.14163,411.31761 z"
         style="fill:#ff0000;fill-opacity:1;fill-rule:evenodd;stroke:#000000;stroke-width:1.19238865;stroke-linecap:butt;stroke-linejoin:miter;stroke-miterlimit:4;stroke-dasharray:none;stroke-opacity:1" />
      <path
         sodipodi:nodetypes="ccccc"
         id="path3398"
         d="M 788.1532,417.71024 C 789.25177,416.59911 790.4534,415.66636 791.77626,414.94353 L 792.11561,415.35304 C 790.66934,416.12659 789.49101,417.09834 788.57666,418.26537 L 788.1532,417.71024 z"
         style="fill:#000000;fill-opacity:1;fill-rule:evenodd;stroke:#000000;stroke-width:1.19238865;stroke-linecap:butt;stroke-linejoin:miter;stroke-miterlimit:4;stroke-dasharray:none;stroke-opacity:1" />
      <path
         sodipodi:nodetypes="czzzczzzz"
         id="path3400"
         d="M 775.19863,430.65861 C 776.26662,431.59323 775.56986,433.58549 777.20866,435.27975 C 778.84747,436.97403 786.93958,435.08362 791.33497,430.95649 C 795.78983,426.77351 795.36795,422.94415 794.02055,420.6017 C 792.67313,418.25925 789.15865,418.43017 788.30732,418.05305 C 787.92267,417.16959 788.76394,415.01714 786.28924,412.45869 C 783.81453,409.90022 779.67969,409.64872 775.79405,413.19438 C 771.87827,416.76752 768.36268,426.1207 770.2852,428.0955 C 772.23617,430.09951 774.13062,429.72399 775.19863,430.65861 z"
         style="fill:#ff0000;fill-opacity:1;fill-rule:evenodd;stroke:#000000;stroke-width:1.19238865;stroke-linecap:butt;stroke-linejoin:miter;stroke-miterlimit:4;stroke-dasharray:none;stroke-opacity:1" />
      <path
         sodipodi:nodetypes="ccccc"
         id="path3404"
         d="M 838.89491,416.48754 C 839.99348,415.37641 841.19511,414.44366 842.51797,413.72083 L 842.85732,414.13034 C 841.41105,414.90389 840.23272,415.87564 839.31837,417.04267 L 838.89491,416.48754 z"
         style="fill:#000000;fill-opacity:1;fill-rule:evenodd;stroke:#000000;stroke-width:1.19238865;stroke-linecap:butt;stroke-linejoin:miter;stroke-miterlimit:4;stroke-dasharray:none;stroke-opacity:1" />
      <path
         sodipodi:nodetypes="czzzczzzz"
         id="path3406"
         d="M 825.94034,429.43591 C 827.00833,430.37053 826.31157,432.36279 827.95037,434.05705 C 829.58918,435.75133 837.68129,433.86092 842.07668,429.73379 C 846.53154,425.55081 846.10966,421.72145 844.76226,419.379 C 843.41484,417.03655 839.90036,417.20747 839.04903,416.83035 C 838.66438,415.94689 839.50565,413.79444 837.03095,411.23599 C 834.55624,408.67752 830.4214,408.42602 826.53576,411.97168 C 822.61998,415.54482 819.10439,424.898 821.02691,426.8728 C 822.97788,428.87681 824.87233,428.50129 825.94034,429.43591 z"
         style="fill:#ff0000;fill-opacity:1;fill-rule:evenodd;stroke:#000000;stroke-width:1.19238865;stroke-linecap:butt;stroke-linejoin:miter;stroke-miterlimit:4;stroke-dasharray:none;stroke-opacity:1" />
      <path
         sodipodi:nodetypes="ccccc"
         id="path3422"
         d="M 804.66652,399.70255 C 805.3027,398.2754 806.09822,396.97883 807.08121,395.83595 L 807.54317,396.09949 C 806.46258,397.33335 805.70261,398.6582 805.25853,400.07269 L 804.66652,399.70255 z"
         style="fill:#000000;fill-opacity:1;fill-rule:evenodd;stroke:#000000;stroke-width:1.19238877;stroke-linecap:butt;stroke-linejoin:miter;stroke-miterlimit:4;stroke-dasharray:none;stroke-opacity:1" />
      <path
         sodipodi:nodetypes="czzzczzzz"
         id="path3424"
         d="M 797.11012,416.38733 C 798.43908,416.88531 798.48961,418.99529 800.62059,420.00282 C 802.75158,421.01037 809.65725,416.38787 812.31494,410.9759 C 815.00858,405.4907 813.26345,402.05609 811.17658,400.33925 C 809.08969,398.62242 805.86125,400.02167 804.93162,399.96899 C 804.26014,399.27792 804.28836,396.96707 801.07043,395.44563 C 797.8525,393.92417 793.89458,395.1469 791.50885,399.83499 C 789.10462,404.55943 789.11309,414.5515 791.60848,415.72149 C 794.1408,416.9088 795.78114,415.88936 797.11012,416.38733 z"
         style="fill:#ff0000;fill-opacity:1;fill-rule:evenodd;stroke:#000000;stroke-width:1.19238877;stroke-linecap:butt;stroke-linejoin:miter;stroke-miterlimit:4;stroke-dasharray:none;stroke-opacity:1" />
      <path
         sodipodi:nodetypes="ccccc"
         id="path3428"
         d="M 773.22555,398.93331 C 773.19067,397.37117 773.35566,395.85898 773.75581,394.4056 L 774.28609,394.44639 C 773.83659,396.02375 773.71583,397.54631 773.91897,399.01489 L 773.22555,398.93331 z"
         style="fill:#000000;fill-opacity:1;fill-rule:evenodd;stroke:#000000;stroke-width:1.19238865;stroke-linecap:butt;stroke-linejoin:miter;stroke-miterlimit:4;stroke-dasharray:none;stroke-opacity:1" />
      <path
         sodipodi:nodetypes="czzzczzzz"
         id="path3430"
         d="M 773.52591,417.24699 C 774.9402,417.12913 775.88777,419.01505 778.24493,419.01505 C 780.6021,419.01505 784.86932,411.88436 784.95871,405.85571 C 785.04931,399.74548 782.00355,397.38637 779.38309,396.72628 C 776.76261,396.0662 774.44204,398.71114 773.5791,399.06087 C 772.67667,398.72312 771.71443,396.62196 768.15496,396.62196 C 764.59548,396.62196 761.53998,399.41912 761.38703,404.67711 C 761.23289,409.97587 765.51153,419.00554 768.26758,418.99664 C 771.06441,418.98761 772.1116,417.36486 773.52591,417.24699 z"
         style="fill:#ff0000;fill-opacity:1;fill-rule:evenodd;stroke:#000000;stroke-width:1.19238865;stroke-linecap:butt;stroke-linejoin:miter;stroke-miterlimit:4;stroke-dasharray:none;stroke-opacity:1" />
      <path
         sodipodi:nodetypes="ccccc"
         id="path3434"
         d="M 834.97147,433.78002 C 834.93659,432.21789 835.10158,430.7057 835.50173,429.25232 L 836.03201,429.29311 C 835.58251,430.87046 835.46175,432.39302 835.66489,433.86161 L 834.97147,433.78002 z"
         style="fill:#000000;fill-opacity:1;fill-rule:evenodd;stroke:#000000;stroke-width:1.19238865;stroke-linecap:butt;stroke-linejoin:miter;stroke-miterlimit:4;stroke-dasharray:none;stroke-opacity:1" />
      <path
         sodipodi:nodetypes="czzzczzzz"
         id="path3436"
         d="M 835.27183,452.09371 C 836.68612,451.97585 837.63369,453.86177 839.99085,453.86177 C 842.34802,453.86177 846.61524,446.73108 846.70463,440.70242 C 846.79523,434.59219 843.74947,432.23309 841.12901,431.57299 C 838.50853,430.91291 836.18796,433.55786 835.32502,433.90758 C 834.42259,433.56984 833.46035,431.46867 829.90088,431.46867 C 826.3414,431.46867 823.2859,434.26584 823.13295,439.52383 C 822.97881,444.82259 827.25745,453.85225 830.0135,453.84336 C 832.81033,453.83433 833.85752,452.21157 835.27183,452.09371 z"
         style="fill:#ff0000;fill-opacity:1;fill-rule:evenodd;stroke:#000000;stroke-width:1.19238865;stroke-linecap:butt;stroke-linejoin:miter;stroke-miterlimit:4;stroke-dasharray:none;stroke-opacity:1" />
      <path
         sodipodi:nodetypes="ccccc"
         id="path3325"
         d="M 747.72549,417.32506 C 786.84084,419.28219 817.25676,419.35729 850.95256,417.32506 C 850.94707,422.45792 850.27641,427.35153 848.90768,431.99405 C 815.36084,429.62994 782.1858,430.47541 749.08874,431.99405 C 747.79578,427.10439 747.20298,422.21472 747.72549,417.32506 z"
         style="fill:#00ba00;fill-opacity:1;fill-rule:evenodd;stroke:#000000;stroke-width:1.01456046px;stroke-linecap:butt;stroke-linejoin:miter;stroke-opacity:1" />
      <path
         sodipodi:nodetypes="ccccc"
         id="path3331"
         d="M 755.55798,462.72512 C 788.72657,464.3847 814.51831,464.44839 843.0913,462.72512 C 843.08664,467.07762 842.51793,471.22726 841.3573,475.16397 C 812.91062,473.15928 784.77924,473.87621 756.71397,475.16397 C 755.61759,471.01769 755.11491,466.8714 755.55798,462.72512 z"
         style="fill:#00ba00;fill-opacity:1;fill-rule:evenodd;stroke:#000000;stroke-width:0.86031532px;stroke-linecap:butt;stroke-linejoin:miter;stroke-opacity:1" />
      <path
         sodipodi:nodetypes="ccccc"
         id="path3335"
         d="M 791.90997,474.95378 C 793.75773,452.91036 793.82864,435.76951 791.90997,416.78026 C 796.57977,416.49091 801.78908,416.3101 806.28002,416.87629 C 804.04803,435.78159 804.32545,456.20594 805.75922,474.85775 C 801.14281,475.5864 796.52638,475.24825 791.90997,474.95378 z"
         style="fill:#00ba00;fill-opacity:1;fill-rule:evenodd;stroke:#000000;stroke-width:0.74004281px;stroke-linecap:butt;stroke-linejoin:miter;stroke-opacity:1" />
      <path
         sodipodi:nodetypes="ccccc"
         id="path3337"
         d="M 767.40609,475.04572 C 769.25385,453.0023 763.36052,435.67756 761.44186,416.68832 C 766.11166,416.39897 771.32096,416.21816 775.81191,416.78435 C 773.57991,435.68965 776.07262,456.29787 777.50639,474.94968 C 772.88998,475.67833 772.0225,475.34018 767.40609,475.04572 z"
         style="fill:#00ba00;fill-opacity:1;fill-rule:evenodd;stroke:#000000;stroke-width:0.74004281px;stroke-linecap:butt;stroke-linejoin:miter;stroke-opacity:1" />
      <path
         sodipodi:nodetypes="ccccc"
         id="path3343"
         d="M 830.94476,475.04572 C 829.09701,453.0023 834.99034,435.67756 836.909,416.68832 C 832.2392,416.39897 827.02989,416.21816 822.53895,416.78435 C 824.77095,435.68965 822.27823,456.29787 820.84447,474.94968 C 825.46088,475.67833 826.32835,475.34018 830.94476,475.04572 z"
         style="fill:#00ba00;fill-opacity:1;fill-rule:evenodd;stroke:#000000;stroke-width:0.74004281px;stroke-linecap:butt;stroke-linejoin:miter;stroke-opacity:1" />
      <path
         sodipodi:nodetypes="ccccc"
         id="path3327"
         d="M 750.13548,432.99286 C 787.42107,434.85844 816.41416,434.93003 848.53371,432.99286 C 848.52848,437.88561 847.88918,442.5503 846.58448,446.97565 C 814.60693,444.72214 782.98378,445.52806 751.43497,446.97565 C 750.20249,442.31473 749.63742,437.65379 750.13548,432.99286 z"
         style="fill:#00ba00;fill-opacity:1;fill-rule:evenodd;stroke:#000000;stroke-width:0.9671005px;stroke-linecap:butt;stroke-linejoin:miter;stroke-opacity:1" />
      <path
         sodipodi:nodetypes="ccccc"
         id="path3329"
         d="M 752.54547,448.22983 C 788.0013,450.00385 815.57157,450.07193 846.11486,448.22983 C 846.10988,452.88247 845.50196,457.31824 844.26129,461.52642 C 813.85301,459.3835 783.78176,460.14987 753.78119,461.52642 C 752.6092,457.09422 752.07185,452.66201 752.54547,448.22983 z"
         style="fill:#00ba00;fill-opacity:1;fill-rule:evenodd;stroke:#000000;stroke-width:0.91964042px;stroke-linecap:butt;stroke-linejoin:miter;stroke-opacity:1" />
      <path
         sodipodi:nodetypes="ccccc"
         id="path3333"
         d="M 779.3567,474.8033 C 781.20446,452.75988 778.54886,435.8029 776.63019,416.81365 C 781.29999,416.52429 786.5093,416.34349 791.00025,416.90968 C 788.76825,435.81498 789.04568,456.23933 790.47944,474.89114 C 785.86303,475.61979 783.97312,475.09776 779.3567,474.8033 z"
         style="fill:#00ba00;fill-opacity:1;fill-rule:evenodd;stroke:#000000;stroke-width:0.74004281px;stroke-linecap:butt;stroke-linejoin:miter;stroke-opacity:1" />
      <path
         sodipodi:nodetypes="ccccc"
         id="path3339"
         d="M 757.14701,475.27651 C 758.99477,453.23309 750.54533,435.72448 748.62667,416.73524 C 753.29647,416.44588 756.29049,416.08121 760.78143,416.6474 C 758.54943,435.5527 764.9615,456.16092 766.39527,474.81273 C 761.77886,475.54138 761.76342,475.57097 757.14701,475.27651 z"
         style="fill:#00ba00;fill-opacity:1;fill-rule:evenodd;stroke:#000000;stroke-width:0.74004281px;stroke-linecap:butt;stroke-linejoin:miter;stroke-opacity:1" />
      <path
         sodipodi:nodetypes="ccccc"
         id="path3341"
         d="M 818.74185,474.8033 C 816.89409,452.75988 819.5497,435.8029 821.46836,416.81365 C 816.79856,416.52429 811.58926,416.34349 807.09831,416.90968 C 809.33031,435.81498 809.05288,456.23933 807.61912,474.89114 C 812.23553,475.61979 814.12544,475.09776 818.74185,474.8033 z"
         style="fill:#00ba00;fill-opacity:1;fill-rule:evenodd;stroke:#000000;stroke-width:0.74004281px;stroke-linecap:butt;stroke-linejoin:miter;stroke-opacity:1" />
      <path
         sodipodi:nodetypes="ccccc"
         id="path3345"
         d="M 841.37425,475.27651 C 839.5265,453.23309 847.97593,435.72448 849.89459,416.73524 C 845.22479,416.44588 842.23078,416.08121 837.73983,416.6474 C 839.97183,435.5527 833.55976,456.16092 832.126,474.81273 C 836.74241,475.54138 836.75784,475.57097 841.37425,475.27651 z"
         style="fill:#00ba00;fill-opacity:1;fill-rule:evenodd;stroke:#000000;stroke-width:0.74004281px;stroke-linecap:butt;stroke-linejoin:miter;stroke-opacity:1" />
    </g>
  </g>
</svg>
