<?xml version="1.0" encoding="UTF-8" standalone="no"?>
<!-- Created with Inkscape (http://www.inkscape.org/) -->
<svg xmlns:svg="http://www.w3.org/2000/svg" xmlns="http://www.w3.org/2000/svg" version="1.0" width="372.04724" height="524.40942" id="svg1901">
  <defs id="defs1903"/>
  <g id="cat" style="opacity: 1;">
    <g id="cattail">
      <path d="M 141.5,338.03125 C 140.39202,347.47776 139.40675,356.21213 140.25,375.4375 C 138.3828,383.83986 135.04642,400.97985 134.65625,403.90625 C 133.72265,410.9082 141.19533,446.39454 143.0625,451.0625 C 144.9297,455.73048 137.46484,471.59763 136.53125,480 C 135.59765,488.40236 127.20312,490.26563 123.46875,494 C 119.73437,497.73436 123.46875,505.20311 123.46875,508.9375 C 123.46875,512.67186 135.58593,511.75002 141.1875,511.75 C 146.78906,511.75 154.24998,493.0586 161.71875,484.65625 C 169.18751,476.25389 166.85155,432.87501 176.1875,417.9375 C 185.52344,402.99998 185.53125,402.96874 185.53125,402.96875 C 185.53125,402.96875 188.80859,500.54689 187.875,504.28125 C 186.94139,508.01566 194.40625,506.12499 194.40625,506.125 L 208.40625,516.40625 C 208.40625,516.40625 218.67186,510.793 222.40625,506.125 C 226.14062,501.45704 216.80471,493.07032 214.9375,487.46875 C 213.07032,481.86718 212.15626,465.05469 212.15625,455.71875 C 212.15625,446.3828 223.35548,422.12892 226.15625,415.59375 C 228.95704,409.05858 228.95312,383.82813 232.6875,387.5625 C 236.42188,391.29687 288.71484,401.58205 295.25,398.78125 C 301.78517,395.98046 301.76954,386.63281 298.96875,381.03125 C 296.16796,375.42968 243.06577,376.76344 235.5,351.15625 C 234.20788,346.78291 233.35056,342.36934 232.75,338.03125" id="path6432" style="opacity: 1; fill: rgb(242, 241, 239); fill-opacity: 1; fill-rule: evenodd; stroke: rgb(0, 0, 0); stroke-width: 0.924212px; stroke-linecap: butt; stroke-linejoin: miter; marker: none; stroke-miterlimit: 4; stroke-dasharray: none; stroke-dashoffset: 0pt; stroke-opacity: 1; visibility: visible; display: inline; overflow: visible;"/>
      <path d="M 172.1875,338.03125 L 141.5,338.03125 C 140.39313,347.48249 139.43799,356.21212 140.28125,375.4375 C 138.41404,383.83986 135.04643,400.97987 134.65625,403.90625 C 133.72266,410.9082 141.1953,446.39451 143.0625,451.0625 C 144.92969,455.73048 137.46484,471.59767 136.53125,480 C 135.59764,488.40235 127.20314,490.26565 123.46875,494 C 119.73438,497.73438 123.46876,505.20309 123.46875,508.9375 C 123.46875,512.67185 135.58593,511.75 141.1875,511.75 C 146.78906,511.74999 154.24999,493.08986 161.71875,484.6875 C 169.18751,476.28515 166.85155,432.90627 176.1875,417.96875 C 185.34552,403.3159 185.33947,403.25723 185.34375,403.25 L 185.34375,402.78125 C 185.34374,402.78126 174.53848,363.37376 172.1875,338.03125 z" id="path6439" style="opacity: 1; fill: rgb(229, 228, 226); fill-opacity: 1; fill-rule: evenodd; stroke: none; stroke-width: 1px; stroke-linecap: butt; stroke-linejoin: miter; stroke-opacity: 1;"/>
    </g>
    <g id="catbody">
      <path d="M 239.875,139.8125 L 159.4375,139.8125 C 159.71474,151.58505 147.85612,183.16314 145.40625,195.71875 C 141.67187,214.85744 145.39844,260.58587 143.53125,311 C 143.20795,323.71789 142.3207,331.03404 141.5,338.03125 L 232.75,338.03125 C 230.53007,321.99579 232.21875,307.29989 232.21875,302.15625 C 232.21875,295.62109 237.35937,273.65627 241.09375,251.25 C 243.77887,235.13927 241.56166,177.70089 239.875,139.8125 z" id="path6430" style="opacity: 1; fill: rgb(242, 241, 239); fill-opacity: 1; fill-rule: evenodd; stroke: rgb(0, 0, 0); stroke-width: 0.924; stroke-linecap: butt; stroke-linejoin: miter; marker: none; stroke-miterlimit: 4; stroke-dasharray: none; stroke-dashoffset: 0pt; stroke-opacity: 1; visibility: visible; display: inline; overflow: visible;"/>
      <path d="M 167.875,139.8125 L 159.4375,139.8125 C 159.71336,151.58206 147.82488,183.16315 145.375,195.71875 C 141.64063,214.85745 145.39844,260.58588 143.53125,311 C 143.20795,323.71789 142.31988,331.03053 141.5,338.03125 L 172.1875,338.03125 C 171.77978,333.63621 171.54187,329.54189 171.75,326.28125 C 173.15822,304.21924 178.78256,196.75146 177.84375,173.28125 C 177.46754,163.87592 173.022,151.42245 167.875,139.8125 z" id="path6437" style="opacity: 1; fill: rgb(229, 228, 226); fill-opacity: 1; fill-rule: evenodd; stroke: none; stroke-width: 1px; stroke-linecap: butt; stroke-linejoin: miter; stroke-opacity: 1;"/>
    </g>
    <g id="cathead">
      <path d="M 239.875,139.8125 C 239.21591,125.00695 238.28125,102.8125 238.28125,102.8125 C 237.34766,102.8125 242.96484,101.42384 249.5,98.15625 C 256.03517,94.88867 253.21876,86.031252 253.21875,86.03125 C 253.21875,86.03125 242.96095,73.894547 233.625,63.625 C 224.28906,53.355455 208.40625,49.59375 208.40625,49.59375 C 209.09347,36.420891 203.36583,20.592229 197.21875,19.71875 C 192.10743,21.580727 186.94922,33.746087 182.28125,40.28125 C 177.61328,46.816414 169.21096,43.062501 152.40625,43.0625 C 135.60154,43.0625 128.125,30.468751 128.125,30.46875 L 142.125,57.0625 C 142.125,57.0625 136.53125,69.203114 136.53125,72.9375 C 136.53125,76.671878 113.18752,64.550788 98.25,61.75 C 83.312483,58.949214 68.375008,62.671889 60.90625,58.9375 C 53.437491,55.203124 50.640629,60.8125 46.90625,60.8125 C 43.17187,60.8125 43.156249,72.937497 43.15625,72.9375 L 52.5,80.40625 C 52.5,80.40625 83.300781,81.355472 87.96875,84.15625 C 92.636735,86.957041 109.45701,102.83202 121.59375,107.5 C 133.73048,112.16797 149.96994,104.07187 151.46875,107.96875 C 153.80273,114.0371 155.20313,128.96873 158.9375,136.4375 C 159.31965,137.2018 159.40589,138.47044 159.4375,139.8125" id="path3244" style="opacity: 1; fill: rgb(242, 241, 239); fill-opacity: 1; fill-rule: evenodd; stroke: rgb(0, 0, 0); stroke-width: 0.924212px; stroke-linecap: butt; stroke-linejoin: miter; marker: none; stroke-miterlimit: 4; stroke-dasharray: none; stroke-dashoffset: 0pt; stroke-opacity: 1; visibility: visible; display: inline; overflow: visible;"/>
      <path d="M 151.4375,108 C 153.76596,114.0837 155.20806,128.97861 158.9375,136.4375 C 159.31965,137.2018 159.40605,138.47078 159.4375,139.8125 L 167.875,139.8125 C 161.34184,125.07583 153.64488,111.71799 151.4375,108 z" id="path6435" style="opacity: 1; fill: rgb(229, 228, 226); fill-opacity: 1; fill-rule: evenodd; stroke: none; stroke-width: 1px; stroke-linecap: butt; stroke-linejoin: miter; stroke-opacity: 1;"/>
      <path d="M 150.65625,106.625 L 150.0625,107 C 150.54931,107.10304 150.9333,107.25384 151.1875,107.53125 C 151.00544,107.22726 150.65625,106.625 150.65625,106.625 z" id="path2407" style="opacity: 1; fill: rgb(229, 228, 226); fill-opacity: 1; fill-rule: evenodd; stroke: none; stroke-width: 1px; stroke-linecap: butt; stroke-linejoin: miter; stroke-opacity: 1;"/>
      <path d="M 151.5383,108.31665 C 151.5313,108.23053 151.54557,108.25957 151.5383,108.17224 C 151.3516,105.93178 151.06305,103.29477 150.64297,100.43196 C 150.22289,97.569158 149.65689,94.487478 148.91007,91.334254 C 148.53666,89.75764 147.87063,88.144694 147.00388,86.511026 C 146.13714,84.877362 145.06159,83.219256 143.85579,81.601152 C 142.64999,79.983052 141.31845,78.394506 139.92789,76.864569 C 138.766,75.586215 137.56747,74.395758 136.37545,73.225485 C 134.84785,75.795641 112.67057,64.463012 98.25171,61.759483 C 83.314193,58.958692 68.376536,62.692354 60.907777,58.957966 C 53.439019,55.22359 50.634563,60.80639 46.900192,60.80639 C 43.165813,60.80639 43.174464,72.936667 43.174464,72.936667 L 52.503226,80.417007 C 52.503226,80.417007 83.301873,81.341956 87.969853,84.142737 C 92.637833,86.943523 109.45133,102.8111 121.58806,107.47908 C 133.72479,112.14705 149.95285,104.07319 151.45165,107.97007 C 151.48542,108.05783 151.50493,108.22522 151.5383,108.31665 z" id="path3201" style="opacity: 1; fill: rgb(229, 228, 226); fill-opacity: 1; fill-rule: evenodd; stroke: none; stroke-width: 1px; stroke-linecap: butt; stroke-linejoin: miter; marker: none; stroke-miterlimit: 4; stroke-dasharray: none; stroke-dashoffset: 0pt; stroke-opacity: 1; visibility: visible; display: inline; overflow: visible;"/>
      <path d="M 446.76677,127.58369 C 446.76677,142.06295 428.91894,153.80071 406.90253,153.80071 C 384.88612,153.80071 367.03829,142.06295 367.03829,127.58369 C 367.03829,113.10443 384.88612,101.36667 406.90253,101.36667 C 428.91894,101.36667 446.76677,113.10443 446.76677,127.58369 L 446.76677,127.58369 z" transform="matrix(0.924212, 0, 0, 0.924212, -205.15, -37.911)" id="path2409" style="opacity: 1; fill: rgb(223, 222, 220); fill-opacity: 1; fill-rule: nonzero; stroke: none; stroke-width: 1; stroke-linecap: butt; stroke-linejoin: miter; marker: none; stroke-miterlimit: 4; stroke-dasharray: none; stroke-dashoffset: 0pt; stroke-opacity: 1; visibility: visible; display: inline; overflow: visible;"/>
      <path d="M 189.17105,44.95038 C 186.72397,45.04147 184.99196,46.414594 183.48137,47.925187 C 180.98439,50.422175 179.6226,48.532607 178.80255,52.63289 C 178.34147,54.93822 178.31156,57.311536 178.31156,59.680006 C 178.31156,62.508887 178.46071,64.628244 179.26465,66.236134 C 179.57831,66.863469 184.62435,68.977898 185.35867,69.528635 C 188.22115,73.706048 193.02542,72.291225 197.11349,73.745354 C 198.7862,74.581718 200.81135,76.519007 202.74541,78.453056 C 204.42376,80.131424 205.85138,83.898457 207.42423,85.471287 C 209.26042,87.307476 211.21122,88.796174 213.05614,90.641094 C 216.41888,95.025508 222.42225,97.467388 227.61248,99.565518 C 230.70803,100.33939 234.13655,100.87033 236.99901,101.44282 C 238.04636,101.65229 238.98306,101.89644 239.88717,102.13598 C 241.86704,101.44127 245.39943,100.20298 249.50475,98.150318 C 256.03991,94.882738 253.23047,86.020042 253.23048,86.020042 C 253.23048,86.020042 250.35528,82.611965 246.32777,77.962067 C 239.60475,73.632017 232.12067,69.002204 230.414,68.575543 C 229.06782,68.239002 227.11235,64.802659 226.65939,63.89672 C 225.93823,62.45444 219.52487,59.816633 218.68806,59.189018 C 216.25898,57.36722 213.47097,57.764613 210.71674,56.3875 C 208.33918,55.198715 205.73814,54.074231 203.66962,53.557102 C 201.64068,53.049869 198.365,50.129795 197.11349,48.87828 C 194.7974,46.562198 194.86375,45.898302 190.99059,45.123669 C 190.34467,44.994487 189.73576,44.929359 189.17105,44.95038 z" id="path2383" style="opacity: 1; fill: rgb(250, 249, 249); fill-opacity: 1; fill-rule: evenodd; stroke: rgb(0, 0, 0); stroke-width: 0.924212px; stroke-linecap: butt; stroke-linejoin: miter; marker: none; stroke-miterlimit: 4; stroke-dasharray: none; stroke-dashoffset: 0pt; stroke-opacity: 1; visibility: visible; display: inline; overflow: visible;"/>
      <path d="M 155.17115,92.662029 L 161.47761,89.010915 L 174.42245,90.670514" id="path3181" style="opacity: 1; fill: rgb(203, 144, 144); fill-opacity: 1; fill-rule: evenodd; stroke: rgb(0, 0, 0); stroke-width: 0.924212px; stroke-linecap: butt; stroke-linejoin: miter; marker: none; stroke-miterlimit: 4; stroke-dasharray: none; stroke-dashoffset: 0pt; stroke-opacity: 1; visibility: visible; display: inline; overflow: visible;"/>
      <path d="M 154.50731,80.712946 L 158.82226,84.364056 L 159.81801,87.683243 L 159.81801,84.364056 L 162.14145,80.049113" id="path3183" style="fill: rgb(203, 144, 144); fill-opacity: 1; fill-rule: evenodd; stroke: rgb(0, 0, 0); stroke-width: 0.924212px; stroke-linecap: butt; stroke-linejoin: miter; stroke-opacity: 1;"/>
      <path d="M 387.14999,113.39777 C 387.14999,116.67048 384.97931,119.32354 382.30164,119.32354 C 379.62396,119.32354 377.45328,116.67048 377.45328,113.39777 C 377.45328,110.12506 379.62396,107.472 382.30164,107.472 C 384.97931,107.472 387.14999,110.12506 387.14999,113.39777 z" transform="matrix(0.924212, 0, 0, 0.924212, -203.301, -34.2141)" id="path3185" style="opacity: 1; fill: rgb(0, 0, 0); fill-opacity: 1; fill-rule: evenodd; stroke: rgb(0, 0, 0); stroke-width: 1px; stroke-linecap: butt; stroke-linejoin: miter; marker: none; stroke-miterlimit: 4; stroke-dasharray: none; stroke-dashoffset: 0pt; stroke-opacity: 1; visibility: visible; display: inline; overflow: visible;"/>
      <path d="M 412.2896,108.36985 C 412.29117,111.44559 410.28082,113.94 407.80039,113.94 C 405.31995,113.94 403.3096,111.44559 403.31117,108.36985 C 403.3096,105.29411 405.31995,102.7997 407.80039,102.7997 C 410.28082,102.7997 412.29117,105.29411 412.2896,108.36985 L 412.2896,108.36985 z" transform="matrix(0.924212, 0, 0, 0.924212, -203.301, -36.0626)" id="path3187" style="opacity: 1; fill: rgb(0, 0, 0); fill-opacity: 1; fill-rule: evenodd; stroke: rgb(0, 0, 0); stroke-width: 1px; stroke-linecap: butt; stroke-linejoin: miter; marker: none; stroke-miterlimit: 4; stroke-dasharray: none; stroke-dashoffset: 0pt; stroke-opacity: 1; visibility: visible; display: inline; overflow: visible;"/>
    </g>
  </g>
</svg>